<svg version="1.1" id="Layer_1" xmlns="http://www.w3.org/2000/svg" xmlns:xlink="http://www.w3.org/1999/xlink" x="0px" y="0px"
	 width="100%" viewBox="0 0 780 330" enable-background="new 0 0 780 330" xml:space="preserve">
<path fill="#FEFEFE" opacity="1.000000" stroke="none" 
	d="
M467.000000,331.000000 
	C311.368286,331.000000 156.236557,331.000000 1.052412,331.000000 
	C1.052412,221.059738 1.052412,111.119438 1.052412,1.089568 
	C260.881714,1.089568 520.763428,1.089568 780.822632,1.089568 
	C780.822632,110.999779 780.822632,220.999863 780.822632,331.000000 
	C676.452820,331.000000 571.976379,331.000000 467.000000,331.000000 
M647.910583,255.745514 
	C648.242920,255.917877 648.575256,256.090240 649.243042,256.771484 
	C650.116821,257.277924 650.990540,257.784363 652.299805,258.802826 
	C654.821472,260.334778 657.343140,261.866730 660.263489,263.909760 
	C662.841797,265.281189 665.420105,266.652649 668.723267,267.992676 
	C671.148193,266.962036 673.573181,265.931396 676.706604,264.750153 
	C680.165710,263.274658 683.624756,261.799164 687.823975,260.193176 
	C690.914124,258.887878 694.004333,257.582581 697.844482,256.155304 
	C701.603943,254.628418 705.363403,253.101532 709.866150,251.383469 
	C719.709167,247.454971 729.507874,243.408951 739.423096,239.671997 
	C742.273438,238.597763 743.013306,237.052765 743.080139,234.173248 
	C743.427246,219.218246 744.035645,204.269531 744.494080,189.316818 
	C745.140503,168.229721 745.735229,147.141052 746.579834,125.436150 
	C744.077148,123.229568 741.574463,121.022987 738.770874,118.257538 
	C737.572632,117.390099 736.374329,116.522659 734.833191,115.103691 
	C732.592285,113.385941 730.351379,111.668198 727.771118,109.368767 
	C724.187073,106.568161 720.603088,103.767555 716.689941,100.389465 
	C713.829468,98.192726 710.968933,95.995987 707.801636,93.211617 
	C700.435913,87.247803 693.070190,81.283981 685.453369,75.116814 
	C677.429077,84.762924 669.565857,94.215416 661.139709,103.245766 
	C658.780396,100.782822 656.421082,98.319878 653.798706,95.250488 
	C651.291016,92.505821 648.783325,89.761154 646.032104,86.369041 
	C644.354797,84.579826 642.677490,82.790619 640.697083,80.298531 
	C636.796021,79.628120 632.895020,78.957710 628.166504,78.053619 
	C615.276855,76.457062 602.382385,74.897614 589.498962,73.252495 
	C578.689453,71.872223 578.696228,71.828384 574.872803,82.303078 
	C574.473450,83.397133 574.041382,84.479263 573.643738,85.573906 
	C565.979980,106.675461 558.319031,127.778023 550.374634,149.296021 
	C550.921204,149.547699 551.467773,149.799362 552.522217,150.496170 
	C554.015320,150.931564 555.508362,151.366959 557.631531,152.189148 
	C561.078430,153.301361 564.525269,154.413589 568.483154,155.912003 
	C568.674438,156.006760 568.865784,156.101517 568.816467,156.834030 
	C563.855774,166.051956 558.801575,175.222122 554.043823,184.543594 
	C553.392944,185.818893 553.556580,188.657623 554.465088,189.400726 
	C562.169983,195.702835 570.135254,201.686722 578.396606,208.255142 
	C578.588928,208.326950 578.781189,208.398773 579.205872,208.849442 
	C579.205872,208.849442 579.632874,208.972336 579.833130,209.403458 
	C580.222229,209.680450 580.611328,209.957443 580.968567,210.990402 
	C577.445129,223.603470 573.921753,236.216553 570.055847,249.448074 
	C568.821350,253.829102 567.586853,258.210144 566.017395,263.779755 
	C574.351624,260.585754 581.672302,257.780243 589.749878,254.957199 
	C599.229553,251.464523 608.709167,247.971863 618.928650,244.291779 
	C621.606934,243.524933 624.285217,242.758072 627.379700,242.523315 
	C630.884827,244.763794 634.389954,247.004288 638.289124,249.781891 
	C641.387451,251.610809 644.485840,253.439743 647.661682,255.252335 
	C647.661682,255.252335 647.726929,255.207306 647.910583,255.745514 
M89.919647,181.080292 
	C102.707069,181.088699 115.494553,181.123947 128.281906,181.099731 
	C152.522766,181.053818 176.763565,180.973801 201.925858,181.089752 
	C210.701202,181.089752 219.476547,181.089752 228.665802,181.089752 
	C229.111893,177.638535 229.522842,174.459137 229.974625,170.963867 
	C220.486893,170.963867 211.243607,170.963867 201.085831,170.739120 
	C171.353348,170.727234 141.620834,170.696320 111.888374,170.716110 
	C103.924789,170.721405 95.961296,170.881485 87.081779,170.757141 
	C78.042252,170.757141 69.002731,170.757141 59.791161,170.757141 
	C60.014397,173.606979 60.254501,175.735229 60.329288,177.869263 
	C60.418434,180.413239 61.662045,181.207199 64.138535,181.153198 
	C72.422165,180.972580 80.709785,180.974533 89.919647,181.080292 
M329.496918,129.670807 
	C329.986481,154.944611 330.660217,180.217224 330.822754,205.493134 
	C330.858765,211.092636 332.173187,214.565643 337.792786,216.106491 
	C340.321014,216.799713 342.621948,218.310852 345.038818,219.423096 
	C362.995636,227.686768 380.955627,235.943481 399.403809,244.555588 
	C422.415619,233.382095 445.450745,222.255737 468.378113,210.911621 
	C469.678772,210.268082 470.802216,207.840881 470.806274,206.240784 
	C470.827667,197.765549 470.456360,189.289536 470.235962,180.813400 
	C469.760498,162.529449 469.294098,144.245270 468.935669,125.244499 
	C468.273224,124.593826 467.724945,123.699005 466.931671,123.328079 
	C445.834351,113.463242 424.737213,103.596497 403.543640,93.941719 
	C401.903290,93.194443 399.251038,93.371956 397.582336,94.179771 
	C376.021820,104.617065 354.543915,115.225510 333.090149,125.881447 
	C331.811646,126.516464 330.915802,127.921989 329.496918,129.670807 
M63.536407,190.439774 
	C63.703072,191.259003 63.869736,192.078232 64.024895,193.658905 
	C77.403992,233.716019 119.051445,257.677307 161.599091,249.848770 
	C198.745544,243.013992 224.221359,208.252151 225.505112,190.630630 
	C216.034042,190.630630 206.554779,190.630630 196.169556,190.340469 
	C162.731735,190.321732 129.293900,190.299927 95.856079,190.299377 
	C94.873863,190.299362 93.891655,190.523880 92.017021,190.395248 
	C82.703011,190.471085 73.389000,190.546921 63.536407,190.439774 
M63.316002,141.811584 
	C64.797668,141.926880 66.279312,142.142456 67.761017,142.142960 
	C119.380013,142.160370 170.999008,142.159012 222.618011,142.148727 
	C223.890579,142.148468 225.163116,142.017380 226.668579,141.934494 
	C221.649384,124.310837 211.482666,110.593552 197.828537,99.093674 
	C174.009369,79.032509 132.780975,74.783096 105.639114,89.987061 
	C85.012787,101.541229 70.237808,118.088196 63.316002,141.811584 
M131.688950,77.315392 
	C129.209763,77.354980 126.728851,77.348190 124.251671,77.441063 
	C80.889458,79.066872 44.265606,114.019516 40.428860,157.680328 
	C36.875626,198.114853 60.522900,236.081970 98.653015,249.728149 
	C109.650803,253.664093 124.702156,255.794098 133.009445,254.253433 
	C131.450424,253.990250 130.857742,253.901627 130.269577,253.789261 
	C112.165794,250.330643 96.144379,242.530853 82.995636,229.639908 
	C64.816917,211.817657 55.294403,190.258560 55.818935,164.393234 
	C56.395134,135.980148 68.567131,113.665756 90.355911,96.139145 
	C102.403008,86.448616 116.408775,81.046097 131.688950,77.315392 
M191.499893,161.283737 
	C204.275177,161.283737 217.050476,161.283737 229.887161,161.283737 
	C229.442307,157.491226 229.065231,154.276474 228.667816,150.888321 
	C226.314682,150.888321 224.493256,150.888336 222.671829,150.888336 
	C170.712418,150.888245 118.753006,150.888123 66.793594,150.888077 
	C65.794380,150.888077 64.593872,150.536453 63.840515,150.966965 
	C62.529419,151.716248 60.876678,152.755844 60.482330,154.021240 
	C59.825737,156.128098 60.049942,158.509445 59.870316,161.283813 
	C103.670372,161.283813 147.085129,161.283813 191.499893,161.283737 
z"/>
<path fill="#2D2356" opacity="1.000000" stroke="none" 
	d="
M63.226471,141.392822 
	C70.237808,118.088196 85.012787,101.541229 105.639114,89.987061 
	C132.780975,74.783096 174.009369,79.032509 197.828537,99.093674 
	C211.482666,110.593552 221.649384,124.310837 226.668579,141.934494 
	C225.163116,142.017380 223.890579,142.148468 222.618011,142.148727 
	C170.999008,142.159012 119.380013,142.160370 67.761017,142.142960 
	C66.279312,142.142456 64.797668,141.926880 63.226471,141.392822 
z"/>
<path fill="#2D2357" opacity="1.000000" stroke="none" 
	d="
M197.075531,190.630630 
	C206.554779,190.630630 216.034042,190.630630 225.505112,190.630630 
	C224.221359,208.252151 198.745544,243.013992 161.599091,249.848770 
	C119.051445,257.677307 77.403992,233.716019 64.066116,192.995605 
	C64.096558,191.762451 64.085777,191.192596 64.074989,190.622742 
	C73.389000,190.546921 82.703011,190.471085 92.492813,190.849899 
	C95.973091,195.539307 98.977577,199.774078 102.027527,204.351273 
	C106.377228,208.139526 110.681473,211.585342 115.191574,215.303925 
	C125.652954,221.705780 136.714355,224.861938 148.680542,223.931595 
	C158.154221,223.195038 166.965912,220.154861 175.346710,214.961227 
	C179.813507,210.957489 183.932373,206.989319 188.398743,202.981339 
	C191.522659,198.837906 194.299088,194.734268 197.075531,190.630630 
z"/>
<path fill="#6291C1" opacity="1.000000" stroke="none" 
	d="
M468.824036,125.961189 
	C469.294098,144.245270 469.760498,162.529449 470.235962,180.813400 
	C470.456360,189.289536 470.827667,197.765549 470.806274,206.240784 
	C470.802216,207.840881 469.678772,210.268082 468.378113,210.911621 
	C445.450745,222.255737 422.415619,233.382095 399.188995,243.896088 
	C398.980316,234.512833 398.986420,225.789093 399.306885,216.905441 
	C413.630920,209.861618 427.677887,203.051376 441.597992,195.990952 
	C443.156128,195.200653 445.016632,192.987228 445.009644,191.441589 
	C444.936646,175.335770 444.561890,159.230042 444.090607,143.129547 
	C444.049530,141.726410 442.727600,140.360748 442.153687,138.669403 
	C451.145844,134.227829 459.984955,130.094513 468.824036,125.961189 
z"/>
<path fill="#4880BF" opacity="1.000000" stroke="none" 
	d="
M398.992523,217.065353 
	C398.986420,225.789093 398.980316,234.512833 398.944397,243.719482 
	C380.955627,235.943481 362.995636,227.686768 345.038818,219.423096 
	C342.621948,218.310852 340.321014,216.799713 337.792786,216.106491 
	C332.173187,214.565643 330.858765,211.092636 330.822754,205.493134 
	C330.660217,180.217224 329.986481,154.944611 329.976288,129.237488 
	C337.989380,132.100693 345.556061,135.326080 353.016022,138.781921 
	C353.971039,139.224335 354.370270,140.866455 354.725220,142.251175 
	C354.722168,156.578949 355.020966,170.608337 355.507019,185.073547 
	C355.667542,187.709274 355.640808,189.909210 355.511444,192.189270 
	C355.279510,192.536438 355.349030,192.751099 355.710663,193.304962 
	C355.765289,194.497086 355.726593,195.297592 355.578278,196.222015 
	C355.667328,196.551971 355.866028,196.758026 356.033264,196.980377 
	C356.001862,196.996658 356.044342,196.940033 356.031006,197.292877 
	C356.198853,201.498779 358.645142,198.620590 360.362000,199.011292 
	C373.145691,204.716248 385.567444,210.395676 398.099457,216.290100 
	C398.433777,216.743408 398.694702,216.930161 398.992523,217.065353 
z"/>
<path fill="#4374B2" opacity="1.000000" stroke="none" 
	d="
M355.026978,141.952820 
	C354.370270,140.866455 353.971039,139.224335 353.016022,138.781921 
	C345.556061,135.326080 337.989380,132.100693 330.148773,128.886566 
	C330.915802,127.921989 331.811646,126.516464 333.090149,125.881447 
	C354.543915,115.225510 376.021820,104.617065 397.582336,94.179771 
	C399.251038,93.371956 401.903290,93.194443 403.543640,93.941719 
	C424.737213,103.596497 445.834351,113.463242 466.931671,123.328079 
	C467.724945,123.699005 468.273224,124.593826 468.879852,125.602844 
	C459.984955,130.094513 451.145844,134.227829 441.900391,138.654572 
	C441.332275,138.898376 441.170532,138.848755 440.851562,138.601471 
	C440.373871,138.322891 440.053406,138.241989 439.385681,138.084213 
	C427.935303,132.834274 416.875305,127.564354 405.689880,122.575691 
	C403.628693,121.656410 400.592102,120.883270 398.799225,121.727592 
	C385.034058,128.210052 371.464966,135.108856 357.552307,141.908600 
	C356.894226,141.983109 356.518829,142.027390 355.865112,142.034546 
	C355.400177,141.982544 355.213593,141.967682 355.026978,141.952820 
z"/>
<path fill="#F79724" opacity="1.000000" stroke="none" 
	d="
M131.536163,77.595032 
	C116.408775,81.046097 102.403008,86.448616 90.355911,96.139145 
	C68.567131,113.665756 56.395134,135.980148 55.818935,164.393234 
	C55.294403,190.258560 64.816917,211.817657 82.995636,229.639908 
	C96.144379,242.530853 112.165794,250.330643 130.269577,253.789261 
	C130.857742,253.901627 131.450424,253.990250 133.009445,254.253433 
	C124.702156,255.794098 109.650803,253.664093 98.653015,249.728149 
	C60.522900,236.081970 36.875626,198.114853 40.428860,157.680328 
	C44.265606,114.019516 80.889458,79.066872 124.251671,77.441063 
	C126.728851,77.348190 129.209763,77.354980 131.536163,77.595032 
z"/>
<path fill="#127DF2" opacity="1.000000" stroke="none" 
	d="
M746.352051,126.053062 
	C745.735229,147.141052 745.140503,168.229721 744.494080,189.316818 
	C744.035645,204.269531 743.427246,219.218246 743.080139,234.173248 
	C743.013306,237.052765 742.273438,238.597763 739.423096,239.671997 
	C729.507874,243.408951 719.709167,247.454971 709.462830,250.990021 
	C709.533813,246.744324 710.218201,242.902222 710.405273,239.036057 
	C710.521118,236.643234 709.881042,234.213821 709.632690,231.450012 
	C709.800537,230.400360 709.915955,229.701523 710.377808,228.946320 
	C712.128662,226.722870 714.186035,224.728851 714.814941,222.356171 
	C716.689880,215.282684 718.205566,208.096191 719.479187,200.886261 
	C720.675842,194.111816 722.571472,187.630051 724.637146,181.055740 
	C727.465271,172.054718 727.817017,162.298767 729.630920,152.944092 
	C730.317505,149.403610 728.960876,148.816315 726.246826,148.684753 
	C729.242920,144.924530 732.106689,141.460632 735.273987,137.847290 
	C738.713928,133.792892 741.850342,129.887985 745.215027,125.982605 
	C745.744934,126.021790 746.047852,126.045433 746.352051,126.053062 
z"/>
<path fill="#FD335F" opacity="1.000000" stroke="none" 
	d="
M550.657532,148.880371 
	C558.319031,127.778023 565.979980,106.675461 573.643738,85.573906 
	C574.041382,84.479263 574.473450,83.397133 574.872803,82.303078 
	C578.696228,71.828384 578.689453,71.872223 589.498962,73.252495 
	C602.382385,74.897614 615.276855,76.457062 628.626404,78.494583 
	C628.925293,80.252541 629.260193,82.046051 628.524902,82.811325 
	C622.507263,89.074409 616.587280,95.494743 609.993225,101.110687 
	C607.197510,103.491768 605.812256,105.306824 606.528931,108.807121 
	C603.266846,108.894913 600.457642,108.766037 597.669250,108.951469 
	C594.026245,109.193718 590.399841,109.684692 586.632690,110.147476 
	C586.328369,110.546417 586.420959,110.783981 586.844238,111.405228 
	C586.851501,116.911217 586.791382,121.950981 586.345703,126.992142 
	C584.200806,127.636765 582.062988,127.845901 580.744812,128.995178 
	C573.401306,135.397842 566.232178,142.002243 559.073853,148.613846 
	C558.171326,149.447433 557.682190,150.728577 557.001465,151.802368 
	C555.508362,151.366959 554.015320,150.931564 552.112061,150.006836 
	C551.353821,149.305115 551.005676,149.092743 550.657532,148.880371 
z"/>
<path fill="#2D2357" opacity="1.000000" stroke="none" 
	d="
M190.999878,161.283783 
	C147.085129,161.283813 103.670372,161.283813 59.870316,161.283813 
	C60.049942,158.509445 59.825737,156.128098 60.482330,154.021240 
	C60.876678,152.755844 62.529419,151.716248 63.840515,150.966965 
	C64.593872,150.536453 65.794380,150.888077 66.793594,150.888077 
	C118.753006,150.888123 170.712418,150.888245 222.671829,150.888336 
	C224.493256,150.888336 226.314682,150.888321 228.667816,150.888321 
	C229.065231,154.276474 229.442307,157.491226 229.887161,161.283737 
	C217.050476,161.283737 204.275177,161.283737 190.999878,161.283783 
z"/>
<path fill="#45397A" opacity="1.000000" stroke="none" 
	d="
M196.622543,190.485550 
	C194.299088,194.734268 191.522659,198.837906 187.958435,202.973053 
	C184.720322,203.334473 182.268265,203.962036 179.819901,203.947998 
	C156.733871,203.815811 133.648651,203.549179 110.562683,203.396072 
	C107.703964,203.377106 104.842339,203.793930 101.982063,204.008835 
	C98.977577,199.774078 95.973091,195.539307 92.939026,190.974121 
	C93.891655,190.523880 94.873863,190.299362 95.856079,190.299377 
	C129.293900,190.299927 162.731735,190.321732 196.622543,190.485550 
z"/>
<path fill="#342966" opacity="1.000000" stroke="none" 
	d="
M87.997765,170.970520 
	C95.961296,170.881485 103.924789,170.721405 111.888374,170.716110 
	C141.620834,170.696320 171.353348,170.727234 201.542053,171.275604 
	C201.666962,174.844025 201.335663,177.875992 201.004379,180.907944 
	C176.763565,180.973801 152.522766,181.053818 128.281906,181.099731 
	C115.494553,181.123947 102.707069,181.088699 89.448044,180.586685 
	C88.650223,177.052231 88.323990,174.011368 87.997765,170.970520 
z"/>
<path fill="#0E7CF8" opacity="1.000000" stroke="none" 
	d="
M661.702698,103.667908 
	C669.565857,94.215416 677.429077,84.762924 685.453369,75.116814 
	C693.070190,81.283981 700.435913,87.247803 707.760254,93.805511 
	C705.621155,96.373444 703.782349,98.784897 701.363647,100.216919 
	C697.914124,102.259232 696.335205,104.794868 696.530518,108.799423 
	C686.364929,108.821602 676.661865,108.766068 666.783264,108.522110 
	C666.113708,108.217369 665.619690,108.101044 664.897278,107.760117 
	C663.680176,106.246315 662.691467,104.957115 661.702698,103.667908 
z"/>
<path fill="#F97C16" opacity="1.000000" stroke="none" 
	d="
M579.632874,208.972336 
	C579.632874,208.972336 579.205872,208.849442 579.079956,208.434143 
	C578.643555,207.934586 578.332947,207.850342 578.022400,207.766083 
	C570.135254,201.686722 562.169983,195.702835 554.465088,189.400726 
	C553.556580,188.657623 553.392944,185.818893 554.043823,184.543594 
	C558.801575,175.222122 563.855774,166.051956 569.270935,156.610260 
	C571.803528,156.949936 573.881653,157.513367 576.102051,158.266083 
	C576.476807,158.672058 576.729675,158.861603 577.003357,159.447296 
	C577.045837,162.621704 577.128784,165.372894 577.121887,168.123871 
	C577.104431,175.060760 576.463684,182.057816 577.173096,188.916962 
	C577.847473,195.437332 574.724365,202.531464 579.699463,208.492889 
	C579.768921,208.576172 579.658997,208.809204 579.632874,208.972336 
z"/>
<path fill="#9653A1" opacity="1.000000" stroke="none" 
	d="
M588.992920,254.974701 
	C581.672302,257.780243 574.351624,260.585754 566.017395,263.779755 
	C567.586853,258.210144 568.821350,253.829102 570.609253,249.159653 
	C574.570129,245.692749 578.120850,242.651276 581.334778,239.287949 
	C583.502686,237.019318 585.195312,234.296616 587.561096,231.788147 
	C594.016052,231.879166 600.010498,231.959061 605.999146,232.401794 
	C603.192017,236.146698 600.476990,239.605362 597.566284,242.890610 
	C594.263977,246.617783 589.497681,249.271317 588.992920,254.974701 
z"/>
<path fill="#A24E96" opacity="1.000000" stroke="none" 
	d="
M587.100586,231.777039 
	C585.195312,234.296616 583.502686,237.019318 581.334778,239.287949 
	C578.120850,242.651276 574.570129,245.692749 570.780518,248.850433 
	C573.921753,236.216553 577.445129,223.603470 581.123413,210.303513 
	C581.529541,208.763031 581.780884,207.909439 582.262878,206.874878 
	C582.596985,206.139587 582.700317,205.585236 582.876465,204.698883 
	C582.996277,203.916519 583.043335,203.466141 583.353149,202.773636 
	C584.657471,199.398315 585.699036,196.265137 586.811035,193.587067 
	C586.954529,206.620483 587.027588,219.198776 587.100586,231.777039 
z"/>
<path fill="#8B57A8" opacity="1.000000" stroke="none" 
	d="
M589.371399,254.965958 
	C589.497681,249.271317 594.263977,246.617783 597.566284,242.890610 
	C600.476990,239.605362 603.192017,236.146698 606.460571,232.319626 
	C612.619324,231.926636 618.310852,231.978638 623.966309,232.374023 
	C622.387268,234.544739 621.014221,236.559479 619.257996,238.151459 
	C617.109802,240.098679 616.563171,242.032211 618.188843,244.479202 
	C608.709167,247.971863 599.229553,251.464523 589.371399,254.965958 
z"/>
<path fill="#F13564" opacity="1.000000" stroke="none" 
	d="
M606.991028,108.730247 
	C605.812256,105.306824 607.197510,103.491768 609.993225,101.110687 
	C616.587280,95.494743 622.507263,89.074409 628.524902,82.811325 
	C629.260193,82.046051 628.925293,80.252541 629.040161,78.611420 
	C632.895020,78.957710 636.796021,79.628120 640.839417,81.014465 
	C640.788269,82.346481 640.783447,83.163239 640.373230,83.548706 
	C633.536133,89.973778 626.546082,96.240662 619.851562,102.809258 
	C618.379883,104.253311 617.918030,106.726616 616.543091,108.803726 
	C613.060303,108.831078 610.025696,108.780663 606.991028,108.730247 
z"/>
<path fill="#D83C73" opacity="1.000000" stroke="none" 
	d="
M646.275574,87.016495 
	C648.783325,89.761154 651.291016,92.505821 653.910645,95.947632 
	C653.216431,98.310570 652.602417,100.109566 651.560608,101.611984 
	C649.844177,104.087303 647.851135,106.370804 645.513733,108.806992 
	C639.365112,108.825989 633.677368,108.773140 627.991333,108.348267 
	C629.119324,105.702126 629.880066,103.129662 631.444336,101.213043 
	C635.262390,96.535065 639.408875,92.119743 643.545593,87.713707 
	C644.087891,87.136093 645.347961,87.232361 646.275574,87.016495 
z"/>
<path fill="#F13564" opacity="1.000000" stroke="none" 
	d="
M557.316528,151.995758 
	C557.682190,150.728577 558.171326,149.447433 559.073853,148.613846 
	C566.232178,142.002243 573.401306,135.397842 580.744812,128.995178 
	C582.062988,127.845901 584.200806,127.636765 586.428223,127.444580 
	C586.840698,131.261581 586.785095,134.627563 586.362061,137.994690 
	C585.041748,138.175034 583.805298,138.033157 583.181030,138.584503 
	C578.429443,142.781403 573.714172,147.029282 569.199646,151.476501 
	C568.317200,152.345810 568.357483,154.151840 567.972168,155.525803 
	C564.525269,154.413589 561.078430,153.301361 557.316528,151.995758 
z"/>
<path fill="#357CD0" opacity="1.000000" stroke="none" 
	d="
M675.998108,264.900757 
	C673.573181,265.931396 671.148193,266.962036 668.205933,267.642639 
	C667.681091,265.050079 667.347107,262.751160 667.722778,260.574707 
	C669.369080,251.037796 671.220703,241.536346 673.436340,231.937927 
	C676.249573,231.911118 678.624390,231.968399 680.999695,232.471039 
	C679.332825,243.577850 677.665466,254.239319 675.998108,264.900757 
z"/>
<path fill="#2D2357" opacity="1.000000" stroke="none" 
	d="
M87.539772,170.863831 
	C88.323990,174.011368 88.650223,177.052231 88.986160,180.499817 
	C80.709785,180.974533 72.422165,180.972580 64.138535,181.153198 
	C61.662045,181.207199 60.418434,180.413239 60.329288,177.869263 
	C60.254501,175.735229 60.014397,173.606979 59.791161,170.757141 
	C69.002731,170.757141 78.042252,170.757141 87.539772,170.863831 
z"/>
<path fill="#217CE3" opacity="1.000000" stroke="none" 
	d="
M697.094482,256.277283 
	C694.004333,257.582581 690.914124,258.887878 687.396912,259.838501 
	C686.838684,257.252014 686.343811,254.970062 686.643433,252.797668 
	C687.602295,245.845184 688.855530,238.933289 690.444214,231.925690 
	C693.928040,231.900314 696.962769,231.954971 699.998230,232.467682 
	C699.030762,240.709579 698.062622,248.493439 697.094482,256.277283 
z"/>
<path fill="#2D2356" opacity="1.000000" stroke="none" 
	d="
M201.465118,180.998840 
	C201.335663,177.875992 201.666962,174.844025 201.999298,171.387970 
	C211.243607,170.963867 220.486893,170.963867 229.974625,170.963867 
	C229.522842,174.459137 229.111893,177.638535 228.665802,181.089752 
	C219.476547,181.089752 210.701202,181.089752 201.465118,180.998840 
z"/>
<path fill="#2B7CD9" opacity="1.000000" stroke="none" 
	d="
M689.995117,232.005722 
	C688.855530,238.933289 687.602295,245.845184 686.643433,252.797668 
	C686.343811,254.970062 686.838684,257.252014 687.026855,259.903748 
	C683.624756,261.799164 680.165710,263.274658 676.352356,264.825470 
	C677.665466,254.239319 679.332825,243.577850 681.443726,232.387314 
	C684.589844,231.907394 687.292480,231.956558 689.995117,232.005722 
z"/>
<path fill="#E6396D" opacity="1.000000" stroke="none" 
	d="
M646.153809,86.692772 
	C645.347961,87.232361 644.087891,87.136093 643.545593,87.713707 
	C639.408875,92.119743 635.262390,96.535065 631.444336,101.213043 
	C629.880066,103.129662 629.119324,105.702126 627.539307,108.424881 
	C623.720764,108.824341 620.355957,108.775146 616.991150,108.725952 
	C617.918030,106.726616 618.379883,104.253311 619.851562,102.809258 
	C626.546082,96.240662 633.536133,89.973778 640.373230,83.548706 
	C640.783447,83.163239 640.788269,82.346481 640.990967,81.365906 
	C642.677490,82.790619 644.354797,84.579826 646.153809,86.692772 
z"/>
<path fill="#1A7CEA" opacity="1.000000" stroke="none" 
	d="
M697.469482,256.216309 
	C698.062622,248.493439 699.030762,240.709579 700.436584,232.385651 
	C703.776306,231.830658 706.678284,231.815750 709.580322,231.800842 
	C709.881042,234.213821 710.521118,236.643234 710.405273,239.036057 
	C710.218201,242.902222 709.533813,246.744324 709.091187,251.085602 
	C705.363403,253.101532 701.603943,254.628418 697.469482,256.216309 
z"/>
<path fill="#4880BF" opacity="1.000000" stroke="none" 
	d="
M659.864746,263.398682 
	C657.343140,261.866730 654.821472,260.334778 652.278259,258.223053 
	C652.984985,256.772400 654.158691,255.997772 654.370911,255.015427 
	C656.020752,247.378616 657.485352,239.701782 659.445923,231.961761 
	C662.256531,231.938446 664.628479,231.990692 666.999573,232.450043 
	C664.620728,243.037674 662.242737,253.218170 659.864746,263.398682 
z"/>
<path fill="#3F7DC7" opacity="1.000000" stroke="none" 
	d="
M660.064087,263.654236 
	C662.242737,253.218170 664.620728,243.037674 667.421997,232.365204 
	C669.562744,231.922836 671.280334,231.972427 672.997925,232.022018 
	C671.220703,241.536346 669.369080,251.037796 667.722778,260.574707 
	C667.347107,262.751160 667.681091,265.050079 667.843506,267.658386 
	C665.420105,266.652649 662.841797,265.281189 660.064087,263.654236 
z"/>
<path fill="#EB7B22" opacity="1.000000" stroke="none" 
	d="
M582.032166,207.055832 
	C581.780884,207.909439 581.529541,208.763031 581.139282,209.925537 
	C580.611328,209.957443 580.222229,209.680450 579.733032,209.187897 
	C579.658997,208.809204 579.768921,208.576172 579.699463,208.492889 
	C574.724365,202.531464 577.847473,195.437332 577.173096,188.916962 
	C576.463684,182.057816 577.104431,175.060760 577.121887,168.123871 
	C577.128784,165.372894 577.045837,162.621704 577.350098,159.468079 
	C579.145081,159.684265 580.593872,160.302979 582.029785,161.397598 
	C581.683350,173.237061 581.223877,184.599457 581.119324,195.965134 
	C581.097778,198.309097 582.398865,200.665237 583.090332,203.015762 
	C583.043335,203.466141 582.996277,203.916519 582.661865,204.885040 
	C582.260437,205.954071 582.146301,206.504959 582.032166,207.055832 
z"/>
<path fill="#2D72E3" opacity="1.000000" stroke="none" 
	d="
M728.110413,109.950462 
	C730.351379,111.668198 732.592285,113.385941 734.824097,115.690491 
	C726.551636,121.851669 718.288330,127.426048 709.942810,132.552170 
	C709.910461,129.069946 709.960205,126.035988 710.367188,122.965599 
	C716.519775,118.602943 722.315125,114.276703 728.110413,109.950462 
z"/>
<path fill="#1377F0" opacity="1.000000" stroke="none" 
	d="
M696.993103,108.721710 
	C696.335205,104.794868 697.914124,102.259232 701.363647,100.216919 
	C703.782349,98.784897 705.621155,96.373444 707.913696,94.099327 
	C710.968933,95.995987 713.829468,98.192726 716.847595,101.093643 
	C716.912964,107.391052 714.310486,110.451546 709.755493,109.676270 
	C705.318359,109.141815 701.155701,108.931763 696.993103,108.721710 
z"/>
<path fill="#466CD4" opacity="1.000000" stroke="none" 
	d="
M746.465942,125.744606 
	C746.047852,126.045433 745.744934,126.021790 744.997803,125.719101 
	C743.403687,125.786636 742.105164,125.881020 741.136780,126.495667 
	C738.949890,127.883774 736.947937,129.559784 734.827637,131.057602 
	C733.622559,131.908844 732.365906,132.700012 731.075073,133.414597 
	C724.065857,137.294846 717.038757,141.142792 709.939148,144.589874 
	C709.914795,142.785873 709.969116,141.393845 710.365906,139.946136 
	C718.907776,134.739929 727.195129,129.720718 735.236816,124.334732 
	C736.969788,123.174072 737.816711,120.690567 739.071777,118.816406 
	C741.574463,121.022987 744.077148,123.229568 746.465942,125.744606 
z"/>
<path fill="#657CA2" opacity="1.000000" stroke="none" 
	d="
M647.584167,255.268677 
	C644.485840,253.439743 641.387451,251.610809 638.250366,249.146225 
	C639.140259,244.661621 640.068909,240.812683 641.207031,236.705750 
	C642.953308,234.970886 644.490112,233.493988 646.456238,231.940735 
	C648.922363,231.919983 650.959106,231.975586 652.995300,232.445236 
	C651.191223,240.329086 649.387695,247.798889 647.584167,255.268677 
z"/>
<path fill="#3A6EDB" opacity="1.000000" stroke="none" 
	d="
M738.921326,118.536972 
	C737.816711,120.690567 736.969788,123.174072 735.236816,124.334732 
	C727.195129,129.720718 718.907776,134.739929 710.284912,139.573029 
	C709.919006,138.498917 709.976624,137.742233 710.195435,136.897751 
	C710.247681,136.542816 710.138855,136.275681 709.944092,135.637390 
	C709.913757,134.510941 709.969360,133.755692 710.024963,133.000427 
	C718.288330,127.426048 726.551636,121.851669 734.995544,115.966263 
	C736.374329,116.522659 737.572632,117.390099 738.921326,118.536972 
z"/>
<path fill="#2176EC" opacity="1.000000" stroke="none" 
	d="
M710.030029,110.000671 
	C714.310486,110.451546 716.912964,107.391052 717.012146,101.382385 
	C720.603088,103.767555 724.187073,106.568161 727.940796,109.659622 
	C722.315125,114.276703 716.519775,118.602943 710.285217,122.508133 
	C709.907349,118.058281 709.968689,114.029480 710.030029,110.000671 
z"/>
<path fill="#E6396D" opacity="1.000000" stroke="none" 
	d="
M568.227661,155.718903 
	C568.357483,154.151840 568.317200,152.345810 569.199646,151.476501 
	C573.714172,147.029282 578.429443,142.781403 583.181030,138.584503 
	C583.805298,138.033157 585.041748,138.175034 586.442871,138.438034 
	C586.826538,142.339142 586.762024,145.798050 586.281006,149.191376 
	C580.634338,149.975296 578.691406,154.462433 575.959778,158.076813 
	C573.881653,157.513367 571.803528,156.949936 569.391296,156.291382 
	C568.865784,156.101517 568.674438,156.006760 568.227661,155.718903 
z"/>
<path fill="#7F5AAE" opacity="1.000000" stroke="none" 
	d="
M646.026855,232.017090 
	C644.490112,233.493988 642.953308,234.970886 640.820007,236.723892 
	C635.803528,238.663757 631.383484,240.327499 626.963501,241.991241 
	C624.285217,242.758072 621.606934,243.524933 618.558716,244.385498 
	C616.563171,242.032211 617.109802,240.098679 619.257996,238.151459 
	C621.014221,236.559479 622.387268,234.544739 624.428711,232.292358 
	C631.960510,231.917221 638.993652,231.967163 646.026855,232.017090 
z"/>
<path fill="#577CAE" opacity="1.000000" stroke="none" 
	d="
M647.622925,255.260498 
	C649.387695,247.798889 651.191223,240.329086 653.420044,232.368439 
	C655.565979,231.930817 657.286621,231.984085 659.007263,232.037338 
	C657.485352,239.701782 656.020752,247.378616 654.370911,255.015427 
	C654.158691,255.997772 652.984985,256.772400 652.060547,257.967041 
	C650.990540,257.784363 650.116821,257.277924 648.987549,256.238708 
	C648.397034,255.539719 648.062012,255.373505 647.726929,255.207306 
	C647.726929,255.207306 647.661682,255.252335 647.622925,255.260498 
z"/>
<path fill="#BC4380" opacity="1.000000" stroke="none" 
	d="
M645.974670,108.735146 
	C647.851135,106.370804 649.844177,104.087303 651.560608,101.611984 
	C652.602417,100.109566 653.216431,98.310570 654.042175,96.250854 
	C656.421082,98.319878 658.780396,100.782822 661.421204,103.456841 
	C662.691467,104.957115 663.680176,106.246315 664.866272,107.946701 
	C665.063660,108.357880 665.074158,108.735802 664.608032,108.819138 
	C658.086182,108.846695 652.030457,108.790924 645.974670,108.735146 
z"/>
<path fill="#7F7D8C" opacity="1.000000" stroke="none" 
	d="
M627.171631,242.257278 
	C631.383484,240.327499 635.803528,238.663757 640.610535,236.981873 
	C640.068909,240.812683 639.140259,244.661621 638.053345,248.877655 
	C634.389954,247.004288 630.884827,244.763794 627.171631,242.257278 
z"/>
<path fill="#45397A" opacity="1.000000" stroke="none" 
	d="
M63.805698,190.531265 
	C64.085777,191.192596 64.096558,191.762451 64.071869,192.614868 
	C63.869736,192.078232 63.703072,191.259003 63.805698,190.531265 
z"/>
<path fill="#F13564" opacity="1.000000" stroke="none" 
	d="
M550.516113,149.088196 
	C551.005676,149.092743 551.353821,149.305115 551.858154,149.784271 
	C551.467773,149.799362 550.921204,149.547699 550.516113,149.088196 
z"/>
<path fill="#EB7B22" opacity="1.000000" stroke="none" 
	d="
M578.209473,208.010620 
	C578.332947,207.850342 578.643555,207.934586 578.963806,208.244720 
	C578.781189,208.398773 578.588928,208.326950 578.209473,208.010620 
z"/>
<path fill="#657CA2" opacity="1.000000" stroke="none" 
	d="
M647.818726,255.476410 
	C648.062012,255.373505 648.397034,255.539719 648.819824,255.984283 
	C648.575256,256.090240 648.242920,255.917877 647.818726,255.476410 
z"/>
<path fill="#40337D" opacity="1.000000" stroke="none" 
	d="
M102.027527,204.351273 
	C104.842339,203.793930 107.703964,203.377106 110.562683,203.396072 
	C133.648651,203.549179 156.733871,203.815811 179.819901,203.947998 
	C182.268265,203.962036 184.720322,203.334473 187.610962,203.012848 
	C183.932373,206.989319 179.813507,210.957489 175.333740,214.562500 
	C173.605835,213.533386 172.259933,212.368225 170.867279,212.309418 
	C168.272034,212.199814 165.650726,212.950394 163.038300,212.964035 
	C148.627365,213.039276 134.215164,212.936142 119.805489,213.089279 
	C118.192200,213.106415 116.591988,214.354126 114.985710,215.031158 
	C110.681473,211.585342 106.377228,208.139526 102.027527,204.351273 
z"/>
<path fill="#443583" opacity="1.000000" stroke="none" 
	d="
M115.191574,215.303925 
	C116.591988,214.354126 118.192200,213.106415 119.805489,213.089279 
	C134.215164,212.936142 148.627365,213.039276 163.038300,212.964035 
	C165.650726,212.950394 168.272034,212.199814 170.867279,212.309418 
	C172.259933,212.368225 173.605835,213.533386 174.985809,214.598053 
	C166.965912,220.154861 158.154221,223.195038 148.680542,223.931595 
	C136.714355,224.861938 125.652954,221.705780 115.191574,215.303925 
z"/>
<path fill="#CBDAE7" opacity="1.000000" stroke="none" 
	d="
M441.008789,138.799149 
	C441.170532,138.848755 441.332275,138.898376 441.747314,138.962830 
	C442.727600,140.360748 444.049530,141.726410 444.090607,143.129547 
	C444.561890,159.230042 444.936646,175.335770 445.009644,191.441589 
	C445.016632,192.987228 443.156128,195.200653 441.597992,195.990952 
	C427.677887,203.051376 413.630920,209.861618 399.306885,216.905441 
	C398.694702,216.930161 398.433777,216.743408 398.114319,215.816193 
	C397.702789,196.755844 397.386688,178.384384 397.423523,159.969910 
	C411.851776,152.952179 425.927094,145.977448 440.257629,138.969528 
	C440.678101,138.890594 440.843445,138.844879 441.008789,138.799149 
z"/>
<path fill="#FDFEFE" opacity="1.000000" stroke="none" 
	d="
M397.070587,160.012939 
	C397.386688,178.384384 397.702789,196.755844 398.004028,215.601196 
	C385.567444,210.395676 373.145691,204.716248 360.132935,198.787689 
	C358.376068,198.005722 357.210205,197.472885 356.044342,196.940033 
	C356.044342,196.940033 356.001862,196.996658 355.964569,196.752838 
	C355.927277,196.509003 355.687927,196.098114 355.687927,196.098114 
	C355.726593,195.297592 355.765289,194.497086 355.775574,193.103821 
	C355.747223,192.511093 355.614044,192.109146 355.614044,192.109146 
	C355.640808,189.909210 355.667542,187.709274 355.635742,184.665955 
	C355.357483,171.934647 355.075684,160.047256 354.978210,148.158356 
	C354.961609,146.132782 355.734985,144.100723 356.143433,142.071671 
	C356.518829,142.027390 356.894226,141.983109 357.923584,141.986938 
	C371.408569,148.027664 384.239563,154.020309 397.070587,160.012939 
z"/>
<path fill="#577CAE" opacity="1.000000" stroke="none" 
	d="
M355.865112,142.034546 
	C355.734985,144.100723 354.961609,146.132782 354.978210,148.158356 
	C355.075684,160.047256 355.357483,171.934647 355.448456,184.230148 
	C355.020966,170.608337 354.722168,156.578949 354.725189,142.251190 
	C355.213593,141.967682 355.400177,141.982544 355.865112,142.034546 
z"/>
<path fill="#577CAE" opacity="1.000000" stroke="none" 
	d="
M356.031006,197.292877 
	C357.210205,197.472885 358.376068,198.005722 359.770966,198.762177 
	C358.645142,198.620590 356.198853,201.498779 356.031006,197.292877 
z"/>
<path fill="#577CAE" opacity="1.000000" stroke="none" 
	d="
M355.511444,192.189270 
	C355.614044,192.109146 355.747223,192.511093 355.682312,192.712234 
	C355.349030,192.751099 355.279510,192.536438 355.511444,192.189270 
z"/>
<path fill="#577CAE" opacity="1.000000" stroke="none" 
	d="
M355.578308,196.222015 
	C355.687927,196.098114 355.927277,196.509003 355.995972,196.736542 
	C355.866028,196.758026 355.667328,196.551971 355.578308,196.222015 
z"/>
<path fill="#DBDEE7" opacity="1.000000" stroke="none" 
	d="
M397.423523,159.969910 
	C384.239563,154.020309 371.408569,148.027664 358.206268,141.956711 
	C371.464966,135.108856 385.034058,128.210052 398.799225,121.727592 
	C400.592102,120.883270 403.628693,121.656410 405.689880,122.575691 
	C416.875305,127.564354 427.935303,132.834274 439.456024,138.293610 
	C439.873566,138.579880 440.002441,139.002747 440.002441,139.002747 
	C425.927094,145.977448 411.851776,152.952179 397.423523,159.969910 
z"/>
<path fill="#6291C1" opacity="1.000000" stroke="none" 
	d="
M440.257629,138.969543 
	C440.002441,139.002747 439.873566,138.579880 439.803223,138.370483 
	C440.053406,138.241989 440.373871,138.322891 440.851562,138.601471 
	C440.843445,138.844879 440.678101,138.890594 440.257629,138.969543 
z"/>
<path fill="#020303" opacity="1.000000" stroke="none" 
	d="
M645.513733,108.806992 
	C652.030457,108.790924 658.086182,108.846695 664.920898,108.884239 
	C666.119507,108.814186 666.539185,108.762360 666.958801,108.710526 
	C676.661865,108.766068 686.364929,108.821602 696.530518,108.799423 
	C701.155701,108.931763 705.318359,109.141815 709.755493,109.676270 
	C709.968689,114.029480 709.907349,118.058281 709.927979,122.544556 
	C709.960205,126.035988 709.910461,129.069946 709.942810,132.552170 
	C709.969360,133.755692 709.913757,134.510941 709.881836,135.881882 
	C709.948364,136.660233 709.991333,136.822891 710.034241,136.985550 
	C709.976624,137.742233 709.919006,138.498917 709.942383,139.628723 
	C709.969116,141.393845 709.914795,142.785873 709.854980,145.012177 
	C709.903198,147.564270 709.956787,149.282089 709.930115,151.461212 
	C709.915161,157.012665 709.980469,162.102768 709.961548,167.642914 
	C709.851562,185.212494 709.813477,202.332047 709.811096,219.451584 
	C709.810669,222.635269 709.954285,225.818985 710.031372,229.002686 
	C709.915955,229.701523 709.800537,230.400360 709.632690,231.450012 
	C706.678284,231.815750 703.776306,231.830658 700.435913,231.927597 
	C696.962769,231.954971 693.928040,231.900314 690.444214,231.925690 
	C687.292480,231.956558 684.589844,231.907394 681.443237,231.941956 
	C678.624390,231.968399 676.249573,231.911118 673.436279,231.937927 
	C671.280334,231.972427 669.562744,231.922836 667.422852,231.958069 
	C664.628479,231.990692 662.256531,231.938446 659.445923,231.961761 
	C657.286621,231.984085 655.565979,231.930817 653.420593,231.954376 
	C650.959106,231.975586 648.922363,231.919983 646.456238,231.940735 
	C638.993652,231.967163 631.960510,231.917221 624.464844,231.948975 
	C618.310852,231.978638 612.619324,231.926636 606.466309,231.956787 
	C600.010498,231.959061 594.016052,231.879166 587.561157,231.788162 
	C587.027588,219.198776 586.954529,206.620483 586.883362,193.110779 
	C586.833313,182.113937 586.781372,172.048523 586.802368,161.542480 
	C586.815979,157.153580 586.756714,153.205276 586.697510,149.256973 
	C586.762024,145.798050 586.826538,142.339142 586.810303,138.436874 
	C586.785095,134.627563 586.840698,131.261581 586.813721,127.443176 
	C586.791382,121.950981 586.851501,116.911217 586.906494,111.187195 
	C586.901367,110.502930 586.766296,110.068665 586.766296,110.068665 
	C590.399841,109.684692 594.026245,109.193718 597.669250,108.951469 
	C600.457642,108.766037 603.266846,108.894913 606.528931,108.807121 
	C610.025696,108.780663 613.060303,108.831078 616.543091,108.803726 
	C620.355957,108.775146 623.720764,108.824341 627.537598,108.796921 
	C633.677368,108.773140 639.365112,108.825989 645.513733,108.806992 
M613.213989,145.517120 
	C613.213989,152.298431 613.213989,159.079742 613.213989,165.961227 
	C610.682861,166.160950 608.599487,166.325348 606.413452,166.497833 
	C606.413452,169.695038 606.413452,172.592224 606.413452,175.690277 
	C614.771484,175.690277 622.848572,175.690277 631.010132,175.690277 
	C631.010132,172.448715 631.010132,169.419098 631.010132,166.356216 
	C628.644897,166.233551 626.672119,166.131226 624.503540,166.018753 
	C624.503540,155.419052 624.503540,145.004364 624.503540,134.333862 
	C626.812622,134.178604 628.913452,134.037354 631.062866,133.892838 
	C631.062866,130.845184 631.062866,127.960342 631.062866,125.166122 
	C622.627319,125.166122 614.543579,125.166122 606.386230,125.166122 
	C606.386230,128.218658 606.386230,130.963898 606.386230,133.887787 
	C608.705322,134.036896 610.785706,134.170654 613.213989,134.326782 
	C613.213989,137.928055 613.213989,141.225830 613.213989,145.517120 
M662.077087,157.120651 
	C660.767761,159.786743 660.145813,163.606476 658.007263,164.880768 
	C653.442261,167.600769 649.656982,164.127274 646.027832,160.889175 
	C643.672913,163.577652 641.447632,166.118134 639.261108,168.614410 
	C645.867371,176.079895 653.886719,178.238174 662.405640,175.095001 
	C670.242554,172.203461 673.423645,166.876205 673.455261,156.502029 
	C673.478577,148.851395 673.459961,141.200623 673.460083,133.549911 
	C673.460144,130.486877 673.460083,127.423836 673.460083,124.512863 
	C669.188782,124.512863 665.770081,124.512863 662.072144,124.512863 
	C662.072144,135.286377 662.072144,145.740707 662.077087,157.120651 
M630.494629,216.272629 
	C635.092651,216.272629 639.690735,216.272629 644.395447,216.272629 
	C644.395447,213.515121 644.395447,211.304535 644.395447,209.042114 
	C629.060486,209.042114 614.030762,209.042114 598.946228,209.042114 
	C598.946228,211.527023 598.946228,213.740677 598.946228,216.272629 
	C609.311951,216.272629 619.403992,216.272629 630.494629,216.272629 
z"/>
<path fill="#1A7CEA" opacity="1.000000" stroke="none" 
	d="
M710.377808,228.946320 
	C709.954285,225.818985 709.810669,222.635269 709.811096,219.451584 
	C709.813477,202.332047 709.851562,185.212494 710.255615,167.459991 
	C715.794128,160.878387 720.954346,154.929749 726.114502,148.981110 
	C728.960876,148.816315 730.317505,149.403610 729.630920,152.944092 
	C727.817017,162.298767 727.465271,172.054718 724.637146,181.055740 
	C722.571472,187.630051 720.675842,194.111816 719.479187,200.886261 
	C718.205566,208.096191 716.689880,215.282684 714.814941,222.356171 
	C714.186035,224.728851 712.128662,226.722870 710.377808,228.946320 
z"/>
<path fill="#5964C6" opacity="1.000000" stroke="none" 
	d="
M726.246826,148.684753 
	C720.954346,154.929749 715.794128,160.878387 710.339844,167.009949 
	C709.980469,162.102768 709.915161,157.012665 710.282471,151.424164 
	C713.000916,149.598587 715.243164,148.188583 717.581116,146.960556 
	C723.354248,143.928162 729.171143,140.979202 734.970459,137.996735 
	C732.106689,141.460632 729.242920,144.924530 726.246826,148.684753 
z"/>
<path fill="#4F67CD" opacity="1.000000" stroke="none" 
	d="
M735.273987,137.847275 
	C729.171143,140.979202 723.354248,143.928162 717.581116,146.960556 
	C715.243164,148.188583 713.000916,149.598587 710.362793,150.962845 
	C709.956787,149.282089 709.903198,147.564270 709.933716,145.424164 
	C717.038757,141.142792 724.065857,137.294846 731.075073,133.414597 
	C732.365906,132.700012 733.622559,131.908844 734.827637,131.057602 
	C736.947937,129.559784 738.949890,127.883774 741.136780,126.495667 
	C742.105164,125.881020 743.403687,125.786636 744.769531,125.719574 
	C741.850342,129.887985 738.713928,133.792892 735.273987,137.847275 
z"/>
<path fill="#D83C73" opacity="1.000000" stroke="none" 
	d="
M586.632690,110.147484 
	C586.766296,110.068665 586.901367,110.502930 586.839111,110.720963 
	C586.420959,110.783981 586.328369,110.546417 586.632690,110.147484 
z"/>
<path fill="#1377F0" opacity="1.000000" stroke="none" 
	d="
M666.783264,108.522110 
	C666.539185,108.762360 666.119507,108.814186 665.387024,108.800903 
	C665.074158,108.735802 665.063660,108.357880 665.094666,108.171295 
	C665.619690,108.101044 666.113708,108.217369 666.783264,108.522110 
z"/>
<path fill="#D83C73" opacity="1.000000" stroke="none" 
	d="
M586.281006,149.191376 
	C586.756714,153.205276 586.815979,157.153580 586.463196,161.482849 
	C584.714966,161.549789 583.378784,161.235748 582.042603,160.921707 
	C580.593872,160.302979 579.145081,159.684265 577.349609,159.044754 
	C576.729675,158.861603 576.476807,158.672058 576.102051,158.266083 
	C578.691406,154.462433 580.634338,149.975296 586.281006,149.191376 
z"/>
<path fill="#D57832" opacity="1.000000" stroke="none" 
	d="
M582.029785,161.397598 
	C583.378784,161.235748 584.714966,161.549789 586.390320,161.923462 
	C586.781372,172.048523 586.833313,182.113937 586.812866,192.655655 
	C585.699036,196.265137 584.657471,199.398315 583.353149,202.773636 
	C582.398865,200.665237 581.097778,198.309097 581.119324,195.965134 
	C581.223877,184.599457 581.683350,173.237061 582.029785,161.397598 
z"/>
<path fill="#D57832" opacity="1.000000" stroke="none" 
	d="
M582.262878,206.874878 
	C582.146301,206.504959 582.260437,205.954071 582.589111,205.217041 
	C582.700317,205.585236 582.596985,206.139587 582.262878,206.874878 
z"/>
<path fill="#2D72E3" opacity="1.000000" stroke="none" 
	d="
M710.195435,136.897751 
	C709.991333,136.822891 709.948364,136.660233 709.967773,136.253052 
	C710.138855,136.275681 710.247681,136.542816 710.195435,136.897751 
z"/>
<path fill="#F7F7F7" opacity="1.000000" stroke="none" 
	d="
M613.213989,145.020355 
	C613.213989,141.225830 613.213989,137.928055 613.213989,134.326782 
	C610.785706,134.170654 608.705322,134.036896 606.386230,133.887787 
	C606.386230,130.963898 606.386230,128.218658 606.386230,125.166122 
	C614.543579,125.166122 622.627319,125.166122 631.062866,125.166122 
	C631.062866,127.960342 631.062866,130.845184 631.062866,133.892838 
	C628.913452,134.037354 626.812622,134.178604 624.503540,134.333862 
	C624.503540,145.004364 624.503540,155.419052 624.503540,166.018753 
	C626.672119,166.131226 628.644897,166.233551 631.010132,166.356216 
	C631.010132,169.419098 631.010132,172.448715 631.010132,175.690277 
	C622.848572,175.690277 614.771484,175.690277 606.413452,175.690277 
	C606.413452,172.592224 606.413452,169.695038 606.413452,166.497833 
	C608.599487,166.325348 610.682861,166.160950 613.213989,165.961227 
	C613.213989,159.079742 613.213989,152.298431 613.213989,145.020355 
z"/>
<path fill="#F9F9F9" opacity="1.000000" stroke="none" 
	d="
M662.074585,156.657837 
	C662.072144,145.740707 662.072144,135.286377 662.072144,124.512863 
	C665.770081,124.512863 669.188782,124.512863 673.460083,124.512863 
	C673.460083,127.423836 673.460144,130.486877 673.460083,133.549911 
	C673.459961,141.200623 673.478577,148.851395 673.455261,156.502029 
	C673.423645,166.876205 670.242554,172.203461 662.405640,175.095001 
	C653.886719,178.238174 645.867371,176.079895 639.261108,168.614410 
	C641.447632,166.118134 643.672913,163.577652 646.027832,160.889175 
	C649.656982,164.127274 653.442261,167.600769 658.007263,164.880768 
	C660.145813,163.606476 660.767761,159.786743 662.074585,156.657837 
z"/>
<path fill="#FDFEFE" opacity="1.000000" stroke="none" 
	d="
M629.995300,216.272629 
	C619.403992,216.272629 609.311951,216.272629 598.946228,216.272629 
	C598.946228,213.740677 598.946228,211.527023 598.946228,209.042114 
	C614.030762,209.042114 629.060486,209.042114 644.395447,209.042114 
	C644.395447,211.304535 644.395447,213.515121 644.395447,216.272629 
	C639.690735,216.272629 635.092651,216.272629 629.995300,216.272629 
z"/>
</svg>